<?xml version="1.0" encoding="UTF-8" standalone="no"?>
<!-- Created with Inkscape (http://www.inkscape.org/) -->

<svg
   xmlns:dc="http://purl.org/dc/elements/1.1/"
   xmlns:cc="http://creativecommons.org/ns#"
   xmlns:rdf="http://www.w3.org/1999/02/22-rdf-syntax-ns#"
   xmlns:svg="http://www.w3.org/2000/svg"
   xmlns="http://www.w3.org/2000/svg"
   xmlns:sodipodi="http://sodipodi.sourceforge.net/DTD/sodipodi-0.dtd"
   xmlns:inkscape="http://www.inkscape.org/namespaces/inkscape"
   width="450"
   height="600"
   viewBox="0 0 119.0625 158.75001"
   version="1.1"
   id="svg8"
   inkscape:version="0.92.4 (unknown)"
   sodipodi:docname="icon.svg">
  <defs
     id="defs2">
    <inkscape:path-effect
       only_selected="false"
       apply_with_weight="true"
       apply_no_weight="true"
       helper_size="0"
       steps="2"
       weight="33.333333"
       is_visible="true"
       id="path-effect3725"
       effect="bspline" />
    <inkscape:path-effect
       effect="bspline"
       id="path-effect3721"
       is_visible="true"
       weight="33.333333"
       steps="2"
       helper_size="0"
       apply_no_weight="true"
       apply_with_weight="true"
       only_selected="false" />
  </defs>
  <sodipodi:namedview
     id="base"
     pagecolor="#ffffff"
     bordercolor="#666666"
     borderopacity="1.0"
     inkscape:pageopacity="0.0"
     inkscape:pageshadow="2"
     inkscape:zoom="0.49497475"
     inkscape:cx="386.51373"
     inkscape:cy="473.08103"
     inkscape:document-units="mm"
     inkscape:current-layer="layer1"
     showgrid="false"
     inkscape:window-width="1366"
     inkscape:window-height="711"
     inkscape:window-x="0"
     inkscape:window-y="0"
     inkscape:window-maximized="1"
     units="px" />
  <metadata
     id="metadata5">
    <rdf:RDF>
      <cc:Work
         rdf:about="">
        <dc:format>image/svg+xml</dc:format>
        <dc:type
           rdf:resource="http://purl.org/dc/dcmitype/StillImage" />
        <dc:title></dc:title>
      </cc:Work>
    </rdf:RDF>
  </metadata>
  <g
     inkscape:label="Layer 1"
     inkscape:groupmode="layer"
     id="layer1"
     transform="translate(0,-138.24998)">
    <path
       style="fill:#008080;stroke-width:0.60758293"
       d="m 23.739294,265.77059 c 0.01701,-11.81322 1.046524,-28.41843 2.173484,-35.05692 2.687774,-15.83265 8.989172,-23.44548 22.422025,-27.08844 5.615787,-1.52299 18.816625,-1.85037 25.82227,-0.6404 14.861303,2.56675 22.324963,10.06423 25.455973,25.57131 1.435684,7.11052 2.486034,22.16783 2.490024,35.69549 l 0.003,9.56943 H 62.916793 23.727694 Z"
       id="path3729"
       inkscape:connector-curvature="0" />
    <path
       style="fill:#008080;stroke-width:0.60758293"
       d="m 59.749703,194.77279 c -6.520944,-1.00737 -12.601265,-5.69757 -15.517466,-11.96978 -2.152825,-4.63032 -2.283622,-12.26815 -0.285403,-16.6659 3.694951,-8.13198 10.506648,-12.68753 19.003918,-12.70951 8.071503,-0.0209 14.741263,4.15872 18.357054,11.50343 1.78514,3.62612 1.99697,4.60697 1.99697,9.24643 0,4.63946 -0.21183,5.62031 -1.99697,9.24643 -4.087191,8.30227 -12.525218,12.74432 -21.558103,11.3489 z"
       id="path3731"
       inkscape:connector-curvature="0" />
    <ellipse
       style="fill:#808000;stroke-width:0.21265401"
       id="path3747"
       cx="62.916878"
       cy="168.27512"
       rx="7.5947866"
       ry="6.227725" />
    <rect
       style="fill:#808000;stroke-width:0.21265401"
       id="rect3733"
       width="21.417299"
       height="13.822511"
       x="52.208229"
       y="169.18648"
       ry="1.8227485" />
    <path
       style="fill:#d4aa00;stroke-width:0.07594787"
       d="m 53.329027,182.82373 c -0.36299,-0.1658 -0.73941,-0.5366 -0.92684,-0.91301 -0.127528,-0.2561 -0.136425,-0.6358 -0.136425,-5.81818 v -5.54419 l 0.168261,-0.31462 c 0.21282,-0.39793 0.693179,-0.81219 1.074123,-0.92633 0.161808,-0.0485 0.651553,-0.0881 1.088333,-0.0881 h 0.794136 l -0.0016,-0.85441 c -0.0024,-0.98989 0.12486,-1.56861 0.524258,-2.38567 0.953885,-1.9514 3.119862,-3.40702 5.633456,-3.78589 2.826957,-0.42611 5.56974,0.44599 7.363971,2.34147 1.088483,1.1499 1.584813,2.41994 1.533163,3.9231 l -0.0261,0.76155 0.8734,6.6e-4 c 0.75626,5.7e-4 0.92475,0.0246 1.25624,0.17894 0.40939,0.19064 0.75376,0.54184 0.91979,0.93804 0.0828,0.19758 0.10209,1.3032 0.10074,5.77203 -0.002,5.20568 -0.01,5.54559 -0.14158,5.83568 -0.17226,0.37924 -0.66809,0.81515 -1.06117,0.93292 -0.21639,0.0648 -2.73222,0.0877 -9.513045,0.0865 -8.764409,-0.001 -9.233836,-0.008 -9.522649,-0.14043 z M 68.52793,169.12822 c 0.1215,-0.19659 0.0488,-1.45828 -0.11329,-1.96503 -0.728156,-2.27708 -3.535519,-3.78769 -6.351602,-3.41773 -2.159217,0.28367 -3.959612,1.56665 -4.574997,3.2602 -0.205723,0.56614 -0.294431,1.33344 -0.215223,1.8616 l 0.0528,0.352 h 5.573039 c 4.249289,0 5.586403,-0.0216 5.629303,-0.091 z"
       id="path3774"
       inkscape:connector-curvature="0" />
    <path
       style="fill:#008080;stroke-width:0.1074065"
       d="m 57.358025,169.0237 c -0.112367,-0.29282 -0.07326,-1.03862 0.08579,-1.63608 0.648488,-2.43604 3.663293,-4.05339 6.582743,-3.53145 1.765026,0.31555 3.475651,1.47709 4.104166,2.78679 0.30707,0.63986 0.52783,2.1758 0.33978,2.36399 -0.0941,0.0942 -1.553276,0.13596 -5.586319,0.15979 -4.968157,0.0294 -5.464936,0.0165 -5.52616,-0.14304 z"
       id="path3792"
       inkscape:connector-curvature="0" />
  </g>
</svg>
